<?xml version="1.0" encoding="iso-8859-1" standalone="no"?> 
<?xml-stylesheet href="ElaboracionMemoriaTFG.css" type="text/css"?> 
<svg xmlns="http://www.w3.org/2000/svg" xmlns:xlink="http://www.w3.org/1999/xlink" width="542.22511pt" height="402.28574pt" viewBox="-212.6598 -382.08574 542.22511 402.28574 "> 
<g transform="translate(0, 20.2 ) scale(1,-1) translate(0,382.08574 )"> 
                                                                            <g stroke="#000" fill="#000">
 <g stroke-width="0.4">
 <g fill="#e6e6ff">
 <g fill="#e6e6ff">
 <path d=" M 42.77792 20.0 L -42.77792 20.0 C -44.98709 20.0 -46.77792 18.20917 -46.77792 16.0 L -46.77792 -16.0 C -46.77792 -18.20917 -44.98709 -20.0 -42.77792 -20.0 L 42.77792 -20.0 C 44.98709 -20.0 46.77792 -18.20917 46.77792 -16.0 L 46.77792 16.0 C 46.77792 18.20917 44.98709 20.0 42.77792 20.0 Z M -46.77792 -20.0  " />
 </g>
 <g transform="translate(-43.44495,-2.365)">
 <g fill="#000">
 <text style="stroke:none" transform="scale(1,-1) translate(43.44495,0)" text-anchor="middle"  font-size="10"> 
<g fill="#000">
 <g stroke="none"> Hacer una pregunta</g> </g>
 </text> 
</g>
 </g>
 </g>
 <g fill="#e6e6ff">
 <g fill="#e6e6ff">
 <path d=" M 208.45981 -36.9055 L -208.45981 -36.9055 C -210.66898 -36.9055 -212.45981 -38.69633 -212.45981 -40.9055 L -212.45981 -72.9055 C -212.45981 -75.11467 -210.66898 -76.9055 -208.45981 -76.9055 L 208.45981 -76.9055 C 210.66898 -76.9055 212.45981 -75.11467 212.45981 -72.9055 L 212.45981 -40.9055 C 212.45981 -38.69633 210.66898 -36.9055 208.45981 -36.9055 Z M -212.45981 -76.9055  " />
 </g>
 <g transform="translate(-209.12683,-66.5405)">
 <g fill="#000">
 <text style="stroke:none" transform="scale(1,-1) translate(209.12683,0)" text-anchor="middle"  font-size="10"> 
<g fill="#000">
 <g stroke="none"> <img 
src="ElaboracionMemoriaTFG1x.png" alt="Estudiar el estado
    del arte  "  class="pic-halign"  />                                                                                                                        </g> </g>
 </text> 
</g>
 </g>
 </g>
 <g fill="#e6e6ff">
 <g fill="#e6e6ff">
 <path d=" M 51.74289 -93.811 L -51.74289 -93.811 C -53.95206 -93.811 -55.74289 -95.60184 -55.74289 -97.811 L -55.74289 -129.811 C -55.74289 -132.02017 -53.95206 -133.811 -51.74289 -133.811 L 51.74289 -133.811 C 53.95206 -133.811 55.74289 -132.02017 55.74289 -129.811 L 55.74289 -97.811 C 55.74289 -95.60184 53.95206 -93.811 51.74289 -93.811 Z M -55.74289 -133.811  " />
 </g>
 <g transform="translate(-52.40991,-116.4685)">
 <g fill="#000">
 <text style="stroke:none" transform="scale(1,-1) translate(52.40991,0)" text-anchor="middle"  font-size="10"> 
<g fill="#000">
 <g stroke="none"> Formular una hipótesis </g> </g>
 </text> 
</g>
 </g>
 </g>
 <g fill="#e6e6ff">
 <g fill="#e6e6ff">
 <path d=" M 47.71788 -150.7165 L -47.71788 -150.7165 C -49.92705 -150.7165 -51.71788 -152.50734 -51.71788 -154.7165 L -51.71788 -186.7165 C -51.71788 -188.92567 -49.92705 -190.7165 -47.71788 -190.7165 L 47.71788 -190.7165 C 49.92705 -190.7165 51.71788 -188.92567 51.71788 -186.7165 L 51.71788 -154.7165 C 51.71788 -152.50734 49.92705 -150.7165 47.71788 -150.7165 Z M -51.71788 -190.7165  " />
 </g>
 <g transform="translate(-48.3849,-173.37401)">
 <g fill="#000">
 <text style="stroke:none" transform="scale(1,-1) translate(48.3849,0)" text-anchor="middle"  font-size="10"> 
<g fill="#000">
 <g stroke="none"> Realizar experimentos </g> </g>
 </text> 
</g>
 </g>
 </g>
 <g fill="#e6e6ff">
 <g fill="#e6e6ff">
 <path d=" M 48.72787 -207.62201 L -48.72787 -207.62201 C -50.93704 -207.62201 -52.72787 -209.41284 -52.72787 -211.62201 L -52.72787 -243.62201 C -52.72787 -245.83118 -50.93704 -247.62201 -48.72787 -247.62201 L 48.72787 -247.62201 C 50.93704 -247.62201 52.72787 -245.83118 52.72787 -243.62201 L 52.72787 -211.62201 C 52.72787 -209.41284 50.93704 -207.62201 48.72787 -207.62201 Z M -52.72787 -247.62201  " />
 </g>
 <g transform="translate(-49.3949,-231.257)">
 <g fill="#000">
 <text style="stroke:none" transform="scale(1,-1) translate(49.3949,0)" text-anchor="middle"  font-size="10"> 
<g fill="#000">
 <g stroke="none"> Analizar los resultados </g> </g>
 </text> 
</g>
 </g>
 </g>
 <g fill="#e6e6ff">
 <g fill="#e6e6ff">
 <path d=" M 325.36531 -93.811 L -91.5543 -93.811 C -93.76347 -93.811 -95.5543 -95.60184 -95.5543 -97.811 L -95.5543 -129.811 C -95.5543 -132.02017 -93.76347 -133.811 -91.5543 -133.811 L 325.36531 -133.811 C 327.57448 -133.811 329.36531 -132.02017 329.36531 -129.811 L 329.36531 -97.811 C 329.36531 -95.60184 327.57448 -93.811 325.36531 -93.811 Z M -95.5543 -133.811  " />
 </g>
 <g transform="translate(-92.22133,-122.4685)">
 <g fill="#000">
 <text style="stroke:none" transform="scale(1,-1) translate(209.12683,0)" text-anchor="middle"  font-size="10"> 
<g fill="#000">
 <g stroke="none"> <img 
src="ElaboracionMemoriaTFG2x.png" alt="Replantear
 hipó tesis  "  class="pic-halign"  />                                                                                                                                   </g> </g>
 </text> 
</g>
 </g>
 </g>
 <g fill="#e6e6e6">
 <g fill="#e6e6e6">
 <path d=" M 32.04214 -294.98024 L 0.0 -262.9381 L -32.04214 -294.98024 L 0.0 -327.02238 Z  " />
 </g>
 <g transform="translate(-22.5,-304.46524)">
 <g fill="#000">
 <text style="stroke:none" transform="scale(1,-1) translate(22.5,0)" text-anchor="middle"  font-size="10"> 
<g fill="#000">
 <g stroke="none"> ¿Hipótesis
   cierta?   </g> </g>
 </text> 
</g>
 </g>
 </g>
 <g fill="#e6e6ff">
 <g fill="#e6e6ff">
 <path d=" M 31.0 -341.88574 L -31.0 -341.88574 C -33.20917 -341.88574 -35.0 -343.67657 -35.0 -345.88574 L -35.0 -377.88574 C -35.0 -380.09491 -33.20917 -381.88574 -31.0 -381.88574 L 31.0 -381.88574 C 33.20917 -381.88574 35.0 -380.09491 35.0 -377.88574 L 35.0 -345.88574 C 35.0 -343.67657 33.20917 -341.88574 31.0 -341.88574 Z M -35.0 -381.88574  " />
 </g>
 <g transform="translate(-18.48996,-365.52074)">
 <g fill="#000">
 <text style="stroke:none" transform="scale(1,-1) translate(18.48996,0)" text-anchor="middle"  font-size="10"> 
<g fill="#000">
 <g stroke="none"> Concluir </g> </g>
 </text> 
</g>
 </g>
 </g>
 <path d=" M 0.0 -20.2 L 0.0 -33.10556  " fill="none"/>
 <g transform="matrix(0.0,-1.0,1.0,0.0,0.0,-33.10556)">
 <path d=" M 3.59995 0.0 C 2.53328 0.2 0.79999 0.79999 -0.4 1.49997 L -0.4 -1.49997 C 0.79999 -0.79999 2.53328 -0.2 3.59995 0.0  " stroke="none"/>
  </g>
 <path d=" M 0.0 -77.1055 L 0.0 -90.01106  " fill="none"/>
 <g transform="matrix(0.0,-1.0,1.0,0.0,0.0,-90.01106)">
 <path d=" M 3.59995 0.0 C 2.53328 0.2 0.79999 0.79999 -0.4 1.49997 L -0.4 -1.49997 C 0.79999 -0.79999 2.53328 -0.2 3.59995 0.0  " stroke="none"/>
  </g>
 <path d=" M 0.0 -134.011 L 0.0 -146.91656  " fill="none"/>
 <g transform="matrix(0.0,-1.0,1.0,0.0,0.0,-146.91656)">
 <path d=" M 3.59995 0.0 C 2.53328 0.2 0.79999 0.79999 -0.4 1.49997 L -0.4 -1.49997 C 0.79999 -0.79999 2.53328 -0.2 3.59995 0.0  " stroke="none"/>
  </g>
 <path d=" M 0.0 -190.9165 L 0.0 -203.82207  " fill="none"/>
 <g transform="matrix(0.0,-1.0,1.0,0.0,0.0,-203.82207)">
 <path d=" M 3.59995 0.0 C 2.53328 0.2 0.79999 0.79999 -0.4 1.49997 L -0.4 -1.49997 C 0.79999 -0.79999 2.53328 -0.2 3.59995 0.0  " stroke="none"/>
  </g>
 <path d=" M -95.7543 -113.811 L 52.34294 -113.811  " fill="none"/>
 <g transform="translate(52.34294,-113.811)">
 <path d=" M 3.59995 0.0 C 2.53328 0.2 0.79999 0.79999 -0.4 1.49997 L -0.4 -1.49997 C 0.79999 -0.79999 2.53328 -0.2 3.59995 0.0  " stroke="none"/>
  </g>
 <path d=" M 0.0 -247.822 L 0.0 -259.05194  " fill="none"/>
 <g transform="matrix(0.0,-1.0,1.0,0.0,0.0,-259.05194)">
 <path d=" M 3.59995 0.0 C 2.53328 0.2 0.79999 0.79999 -0.4 1.49997 L -0.4 -1.49997 C 0.79999 -0.79999 2.53328 -0.2 3.59995 0.0  " stroke="none"/>
  </g>
 <path d=" M 0.0 -327.30809 L 0.0 -338.0858  " fill="none"/>
 <g transform="matrix(0.0,-1.0,1.0,0.0,0.0,-338.0858)">
 <path d=" M 3.59995 0.0 C 2.53328 0.2 0.79999 0.79999 -0.4 1.49997 L -0.4 -1.49997 C 0.79999 -0.79999 2.53328 -0.2 3.59995 0.0  " stroke="none"/>
  </g>
 <g transform="translate(3.53297,-337.83942)">
 <g fill="#000">
 <text style="stroke:none" transform="scale(1,-1) translate(35.56593,0)" text-anchor="middle"  font-size="10"> 
<g fill="#000">
 <g stroke="none"> Sí         </g> </g>
 </text> 
</g>
 </g>
 <path d=" M 32.32835 -294.98024 L 116.9055 -294.98024 L 116.9055 -137.61095  " fill="none"/>
 <g transform="matrix(0.0,1.0,-1.0,0.0,116.9055,-137.61095)">
 <path d=" M 3.59995 0.0 C 2.53328 0.2 0.79999 0.79999 -0.4 1.49997 L -0.4 -1.49997 C 0.79999 -0.79999 2.53328 -0.2 3.59995 0.0  " stroke="none"/>
  </g>
 <g transform="translate(81.33957,-291.30727)">
 <g fill="#000">
 <text style="stroke:none" transform="scale(1,-1) translate(35.56593,0)" text-anchor="middle"  font-size="10"> 
<g fill="#000">
 <g stroke="none"> No</g> </g>
 </text> 
</g>
 </g>
 </g>
 </g>
 
                                                                                                                                                                                                   </g> 
</svg> 
